<?xml version="1.0" encoding="UTF-8" standalone="no"?>
<svg
   height="24px"
   viewBox="0 -960 960 960"
   width="24px"
   fill="undefined"
   version="1.1"
   id="svg1"
   sodipodi:docname="communities-icon.svg"
   inkscape:version="1.3.2 (091e20e, 2023-11-25, custom)"
   xmlns:inkscape="http://www.inkscape.org/namespaces/inkscape"
   xmlns:sodipodi="http://sodipodi.sourceforge.net/DTD/sodipodi-0.dtd"
   xmlns="http://www.w3.org/2000/svg"
   xmlns:svg="http://www.w3.org/2000/svg">
  <defs
     id="defs1" />
  <sodipodi:namedview
     id="namedview1"
     pagecolor="#ffffff"
     bordercolor="#000000"
     borderopacity="0.25"
     inkscape:showpageshadow="2"
     inkscape:pageopacity="0.0"
     inkscape:pagecheckerboard="0"
     inkscape:deskcolor="#d1d1d1"
     inkscape:zoom="29.416667"
     inkscape:cx="12"
     inkscape:cy="11.983003"
     inkscape:window-width="1920"
     inkscape:window-height="991"
     inkscape:window-x="-9"
     inkscape:window-y="-9"
     inkscape:window-maximized="1"
     inkscape:current-layer="svg1" />
  <path
     d="M360-320q33 0 56.5-23.5T440-400q0-33-23.5-56.5T360-480q-33 0-56.5 23.5T280-400q0 33 23.5 56.5T360-320Zm240 0q33 0 56.5-23.5T680-400q0-33-23.5-56.5T600-480q-33 0-56.5 23.5T520-400q0 33 23.5 56.5T600-320ZM480-520q33 0 56.5-23.5T560-600q0-33-23.5-56.5T480-680q-33 0-56.5 23.5T400-600q0 33 23.5 56.5T480-520Zm0 440q-83 0-156-31.5T197-197q-54-54-85.5-127T80-480q0-83 31.5-156T197-763q54-54 127-85.5T480-880q83 0 156 31.5T763-763q54 54 85.5 127T880-480q0 83-31.5 156T763-197q-54 54-127 85.5T480-80Zm0-80q134 0 227-93t93-227q0-134-93-227t-227-93q-134 0-227 93t-93 227q0 134 93 227t227 93Zm0-320Z"
     id="path1"
     style="fill:#ede6f5;fill-opacity:1" />
</svg>
