<?xml version="1.0" encoding="UTF-8" standalone="no"?>
<!-- Created with Inkscape (http://www.inkscape.org/) -->

<svg
   width="512"
   height="512"
   viewBox="0 0 135.46666 135.46667"
   version="1.1"
   id="svg1"
   inkscape:version="1.3.2 (091e20e, 2023-11-25, custom)"
   sodipodi:docname="octoconvo-community-button-icon.svg"
   xml:space="preserve"
   xmlns:inkscape="http://www.inkscape.org/namespaces/inkscape"
   xmlns:sodipodi="http://sodipodi.sourceforge.net/DTD/sodipodi-0.dtd"
   xmlns="http://www.w3.org/2000/svg"
   xmlns:svg="http://www.w3.org/2000/svg"><sodipodi:namedview
     id="namedview1"
     pagecolor="#ffffff"
     bordercolor="#000000"
     borderopacity="0.25"
     inkscape:showpageshadow="2"
     inkscape:pageopacity="0.0"
     inkscape:pagecheckerboard="0"
     inkscape:deskcolor="#d1d1d1"
     inkscape:document-units="mm"
     inkscape:zoom="0.96504997"
     inkscape:cx="176.15668"
     inkscape:cy="306.71987"
     inkscape:window-width="1920"
     inkscape:window-height="991"
     inkscape:window-x="-9"
     inkscape:window-y="-9"
     inkscape:window-maximized="1"
     inkscape:current-layer="layer1" /><defs
     id="defs1"><linearGradient
       id="linearGradient34"><stop
         style="stop-color:#344d7c;stop-opacity:1;"
         offset="0"
         id="stop60" /><stop
         style="stop-color:#3bc1e7;stop-opacity:1;"
         offset="1"
         id="stop61" /></linearGradient><linearGradient
       id="linearGradient34-1"><stop
         style="stop-color:#fbc3c3;stop-opacity:1;"
         offset="0"
         id="stop34" /><stop
         style="stop-color:#ec5ee4;stop-opacity:1;"
         offset="1"
         id="stop35" /></linearGradient><linearGradient
       id="linearGradient1"><stop
         style="stop-color:#3bc1e7;stop-opacity:1;"
         offset="0"
         id="stop4" /><stop
         style="stop-color:#440099;stop-opacity:0;"
         offset="1"
         id="stop5" /></linearGradient><linearGradient
       id="linearGradient1-1"><stop
         style="stop-color:#440099;stop-opacity:0.71096343;"
         offset="0"
         id="stop2" /><stop
         style="stop-color:#440099;stop-opacity:1;"
         offset="1"
         id="stop1" /></linearGradient><inkscape:path-effect
       effect="fillet_chamfer"
       id="path-effect9"
       is_visible="true"
       lpeversion="1"
       nodesatellites_param="F,0,0,1,0,0,0,1 @ F,0,0,1,0,0,0,1 @ F,0,0,1,0,0,0,1 @ F,0,0,1,0,0,0,1"
       radius="0"
       unit="px"
       method="auto"
       mode="F"
       chamfer_steps="1"
       flexible="false"
       use_knot_distance="true"
       apply_no_radius="true"
       apply_with_radius="true"
       only_selected="false"
       hide_knots="false" /><inkscape:path-effect
       effect="fill_between_many"
       method="originald"
       linkedpaths="#path7,0,1"
       id="path-effect10"
       is_visible="true"
       lpeversion="0"
       join="true"
       close="true"
       autoreverse="true" /></defs><g
     inkscape:label="Layer 1"
     inkscape:groupmode="layer"
     id="layer1"><path
       id="path1"
       style="fill:none;stroke:#ede6f5;stroke-width:12.7;stroke-dasharray:none"
       d="m 127.22963,67.73333 c 0,32.85891 -26.6374,59.49632 -59.4963,59.49632 -32.858898,0 -59.4962983,-26.63741 -59.4963,-59.49632 10e-8,-32.858912 26.637401,-59.4963229 59.4963,-59.4963229 22.418991,0 41.94183,12.3998979 52.0843,30.7154719 4.72307,8.529059 7.412,18.340939 7.412,28.780851 z"
       sodipodi:nodetypes="ssssss" /><path
       id="path2"
       style="fill:#ede6f5;stroke-width:41.275;stroke-dasharray:none"
       d="M 67.733334,33.866667 A 33.866666,33.866666 0 0 0 33.866667,67.733334 33.866666,33.866666 0 0 0 67.733334,101.6 33.866666,33.866666 0 0 0 101.6,67.733334 33.866666,33.866666 0 0 0 67.733334,33.866667 Z m 0.09767,16.814478 c 9.840597,-0.02127 12.164459,5.811589 11.87111,11.385869 1.617258,1.583499 1.612014,5.694671 -0.805119,8.337475 -1.120419,1.225024 -2.562542,1.914641 -3.953247,2.154907 -1.971847,1.590289 -4.421228,2.436027 -7.097758,2.436027 -2.555052,0 -4.95325,-0.901091 -6.916891,-2.442745 -1.511545,-0.166844 -3.129471,-0.871101 -4.359423,-2.215885 -2.429678,-2.65652 -2.42288,-6.79757 -0.780315,-8.362797 0.04355,-0.0415 0.08957,-0.07848 0.134876,-0.116272 -0.179769,-5.506992 2.188982,-11.155578 11.906767,-11.176579 z m -11.184332,22.63066 c 3.286126,0.0082 5.831686,0.646684 5.831686,1.791105 -10e-7,1.144423 -2.531091,1.81375 -5.817217,1.805575 -3.286125,-0.0082 -5.86114,-0.676139 -5.86114,-1.820561 0,-1.144422 2.560545,-1.784293 5.846671,-1.776119 z m 22.173324,0 c 3.286127,-0.0082 5.846672,0.631697 5.846672,1.776119 0,1.144422 -2.575014,1.812388 -5.86114,1.820561 -3.286128,0.0082 -5.817217,-0.661152 -5.817217,-1.805575 0,-1.144421 2.545562,-1.782931 5.831685,-1.791105 z m -11.71453,2.00763 c 0.04825,0.0028 0.09394,0.01474 0.136942,0.03669 0.458664,0.23419 0.209103,1.385783 -0.466638,2.701127 -0.67574,1.315349 -1.470417,2.210817 -1.929081,1.976624 -0.458664,-0.234192 -0.191017,-1.391471 0.484725,-2.706812 0.612389,-1.192037 1.307677,-2.034473 1.774052,-2.00763 z m 1.255737,0 c 0.466375,-0.02685 1.161662,0.815592 1.774052,2.007629 0.675741,1.315342 0.943388,2.472621 0.484725,2.706812 -0.458665,0.234194 -1.253341,-0.661274 -1.929081,-1.976623 -0.675742,-1.315345 -0.925302,-2.466937 -0.466639,-2.701128 0.043,-0.02196 0.0887,-0.03391 0.136943,-0.03669 z m -4.012675,0.04651 c 0.193285,0.0053 0.362217,0.06171 0.501261,0.17415 0.889881,0.719594 -0.180992,3.108481 -2.253609,5.658569 -2.072617,2.550092 -4.211099,4.132306 -5.10098,3.412712 -0.889882,-0.719591 0.222333,-3.112615 2.29495,-5.662704 1.74877,-2.151636 3.514639,-3.611384 4.558378,-3.582727 z m 6.769613,0 c 1.043739,-0.02866 2.809608,1.431091 4.558378,3.582727 2.072616,2.550089 3.184835,4.943113 2.29495,5.662704 -0.889881,0.719594 -3.028364,-0.86262 -5.100981,-3.412712 -2.072616,-2.550088 -3.14349,-4.938975 -2.253609,-5.658569 0.139044,-0.112436 0.307977,-0.168843 0.501262,-0.17415 z" /></g></svg>
